<svg width="725" height="583" viewBox="0 0 725 583" fill="none" xmlns="http://www.w3.org/2000/svg">
<path d="M688.188 185.705H609.176C602.872 185.705 597.72 190.853 597.72 197.152V231.78C597.72 237.567 602.456 242.299 608.248 242.299H610.264L606.456 258.35L630.361 242.299H688.86C695.164 242.299 700.317 237.151 700.317 230.852V197.823C700.317 191.141 694.844 185.705 688.188 185.705Z" fill="#88EEFB"/>
<path d="M690.3 214.456H607.928C606.808 214.456 605.88 213.529 605.88 212.41C605.88 211.291 606.808 210.364 607.928 210.364H690.3C691.42 210.364 692.349 211.291 692.349 212.41C692.349 213.529 691.42 214.456 690.3 214.456Z" fill="white"/>
<path d="M690.3 223.569H607.928C606.808 223.569 605.88 222.641 605.88 221.522C605.88 220.403 606.808 219.476 607.928 219.476H690.3C691.42 219.476 692.349 220.403 692.349 221.522C692.349 222.673 691.42 223.569 690.3 223.569Z" fill="white"/>
<path d="M690.3 232.713H607.928C606.808 232.713 605.88 231.786 605.88 230.667C605.88 229.548 606.808 228.62 607.928 228.62H690.3C691.42 228.62 692.349 229.548 692.349 230.667C692.349 231.786 691.42 232.713 690.3 232.713Z" fill="white"/>
<path d="M645.434 200.292H610.456C609.112 200.292 608.024 199.205 608.024 197.862C608.024 196.519 609.112 195.432 610.456 195.432H645.434C646.778 195.432 647.866 196.519 647.866 197.862C647.834 199.205 646.746 200.292 645.434 200.292Z" fill="white"/>
<path d="M675.484 200.292H654.427C653.37 200.292 652.506 199.429 652.506 198.373V197.35C652.506 196.295 653.37 195.432 654.427 195.432H675.484C676.54 195.432 677.404 196.295 677.404 197.35V198.373C677.404 199.429 676.54 200.292 675.484 200.292Z" fill="white"/>
<path d="M278.12 395.213H387.95C391.406 395.213 394.19 392.432 394.19 388.979V355.214C394.19 351.761 391.406 348.979 387.95 348.979H278.12C274.664 348.979 271.88 351.761 271.88 355.214V388.979C271.912 392.4 274.696 395.213 278.12 395.213Z" fill="white"/>
<path d="M453.169 23.3093V427.683C453.169 437.659 445.073 445.717 435.088 445.717H208.518C198.533 445.717 190.437 437.627 190.437 427.683V23.3093C190.437 13.3334 198.533 5.24402 208.518 5.24402H435.088C445.105 5.27599 453.169 13.3334 453.169 23.3093Z" fill="#C0D8FB"/>
<path d="M249.735 328.276H360.269C363.501 328.276 366.125 325.654 366.125 322.425V293.169C366.125 289.939 363.501 287.317 360.269 287.317H249.735C246.503 287.317 243.879 289.939 243.879 293.169V322.393C243.879 325.654 246.503 328.276 249.735 328.276Z" fill="#FCE29E"/>
<path d="M448.593 5.27588H194.34V174.61H448.593V5.27588Z" fill="#F0F6FF"/>
<path d="M353.901 27.274H289.802C280.298 27.274 272.617 19.6003 272.617 10.104H371.086C371.054 19.6003 363.374 27.274 353.901 27.274Z" fill="#2B478B"/>
<path d="M435.568 450.577H208.069C195.812 450.577 185.86 440.089 185.86 427.204V23.7887C185.86 10.9032 195.812 0.415771 208.069 0.415771H435.568C447.825 0.415771 457.777 10.9032 457.777 23.7887V427.204C457.777 440.089 447.825 450.577 435.568 450.577ZM208.069 10.1039C200.901 10.1039 195.076 16.2429 195.076 23.7887V427.204C195.076 434.749 200.901 440.888 208.069 440.888H435.568C442.736 440.888 448.561 434.749 448.561 427.204V23.7887C448.561 16.2429 442.736 10.1039 435.568 10.1039H208.069Z" fill="#2B478B"/>
<path d="M434.385 445.588H202.213C195.589 445.588 190.181 440.217 190.181 433.598V417.323H453.458V426.532C453.458 437.051 444.913 445.588 434.385 445.588Z" fill="#2B478B"/>
<path d="M474.771 226.344C484.691 224.234 495.028 227.239 502.388 234.21C505.62 237.279 509.173 241.148 512.437 245.72C520.533 257.007 505.044 268.198 507.092 272.003C509.141 275.84 513.941 278.845 511.829 286.839C509.749 294.832 495.956 305.192 491.476 305.639C445.937 310.308 426.192 285.24 441.393 271.715C456.594 258.19 450.418 238.59 462.77 230.98C466.61 228.614 470.803 227.207 474.771 226.344Z" fill="#233862"/>
<path d="M497.939 296.271C497.939 296.271 540.822 314.944 548.598 314.592C556.374 314.24 604.345 300.012 604.345 300.012L603.129 308.261C603.129 308.261 566.103 329.524 553.174 330.739C540.437 331.922 496.883 319.324 492.659 316.638C488.435 313.952 485.715 298.957 497.939 296.271Z" fill="#FDB888"/>
<path d="M503.123 316.671C499.347 319.292 494.643 321.435 488.723 322.809C466.514 327.925 458.001 309.189 454.801 296.303C457.841 294.577 460.689 294.193 462.321 294.001C463.922 293.809 465.618 293.681 467.026 293.617C469.522 291.699 473.234 283.897 474.066 271.747L475.122 272.035L492.627 276.831C492.627 276.831 491.827 282.394 491.443 287.638C491.155 291.763 491.091 295.696 491.859 296.655C493.235 296.943 494.035 297.134 494.035 297.134C494.035 297.134 494.035 297.134 494.035 297.166C494.259 297.518 499.347 305.863 503.123 316.671Z" fill="#FFB27D"/>
<path d="M492.595 276.799C492.595 276.799 491.795 282.362 491.411 287.606C481.49 286.615 476.882 277.182 475.09 272.003L492.595 276.799Z" fill="#ED985F"/>
<path d="M495.571 282.011C495.571 282.011 472.018 280.7 473.042 266.088C474.066 251.444 471.73 241.436 486.802 241.628C501.875 241.852 504.403 247.639 505.235 252.595C506.099 257.551 501.715 281.979 495.571 282.011Z" fill="#FFB27D"/>
<path d="M505.172 244.409C501.843 239.741 499.027 240.509 497.395 241.724C485.043 233.73 476.018 243.578 476.018 243.578C473.682 253.97 465.682 259.437 465.682 259.437C465.682 259.437 469.842 262.762 479.858 260.556C492.627 257.711 497.011 246.648 497.619 244.953C498.963 246.36 500.691 247.223 502.036 250.261C503.604 253.842 504.596 255.92 504.628 261.803C504.596 261.803 510.132 251.412 505.172 244.409Z" fill="#233862"/>
<path d="M448.081 364.503C445.969 353.632 439.024 310.244 445.969 296.271C448.465 291.251 458.225 290.803 468.946 291.251C472.274 293.393 484.979 301.547 490.227 300.524C490.291 300.524 490.387 300.492 490.515 300.46C492.979 299.852 493.907 298.125 491.859 296.623C491.859 296.623 497.171 296.111 503.764 297.358C507.476 298.062 517.524 303.241 517.524 303.241C517.524 303.241 512.468 312.386 505.012 315.519C506.292 326.87 504.404 331.858 492.627 358.045C482.674 380.171 493.971 400.122 493.971 400.122C493.971 400.122 435.408 447.156 435.088 423.207C434.832 405.174 450.801 378.38 448.081 364.503Z" fill="white"/>
<path d="M496.851 451.249C500.051 450.897 502.899 449.138 504.691 446.484C504.979 446.069 505.267 445.621 505.587 445.11C512.244 435.038 514.836 404.151 529.845 371.25C533.493 363.256 546.613 361.818 550.165 352.737C550.165 352.737 558.966 323.385 533.333 322.522C507.699 321.658 464.689 404.151 463.985 412.816C463.345 421.257 447.056 456.876 496.851 451.249Z" fill="#FDCD51"/>
<path d="M598.744 450.577H562.262C562.262 450.577 560.886 444.758 563.286 440.793C565.399 437.308 564.598 435.293 563.03 432.416C564.694 433.087 566.807 433.695 569.175 433.567C570.999 433.471 572.919 432.64 574.615 431.648C576.183 433.439 582.903 441.049 585.015 442.551C587.384 444.31 598.008 443.67 598.744 450.577Z" fill="#233862"/>
<path d="M550.999 331.059C553.207 347.525 561.783 399.451 576.92 424.806C581.784 432.991 564.631 437.564 564.535 437.532C562.231 436.924 558.391 433.247 556.631 431.681C544.342 420.618 519.413 389.283 519.413 364.184C519.413 351.938 519.189 328.533 528.118 322.586C533.59 318.909 550.135 324.536 550.999 331.059Z" fill="#FDCD51"/>
<path d="M475.09 450.577C475.09 450.577 476.434 448.691 478.802 445.142C481.618 440.889 484.723 432.544 488.467 421.833C492.435 410.578 497.107 396.765 502.995 382.345C504.82 377.9 506.74 373.392 508.788 368.916C512.436 360.922 522.484 362.009 526.069 352.961C526.069 352.961 540.021 321.594 514.388 320.699C488.755 319.836 440.048 404.631 437.232 412.848C434.16 421.865 419.183 459.21 475.09 450.577Z" fill="#FCE29E"/>
<path d="M571.959 450.577H535.477C535.477 450.577 534.101 444.758 536.501 440.793C538.613 437.308 537.813 435.293 536.245 432.416C537.909 433.087 540.021 433.695 542.389 433.567C544.213 433.471 546.134 432.64 547.83 431.648C549.398 433.439 556.118 441.049 558.23 442.551C560.598 444.31 571.223 443.67 571.959 450.577Z" fill="#2B478B"/>
<path d="M488.467 421.833C492.435 410.578 497.107 396.765 502.995 382.345C501.459 371.442 498.163 361.882 492.595 358.045C492.595 358.045 479.122 399.771 488.467 421.833Z" fill="#FFDB7D"/>
<path d="M529.717 329.908C531.925 346.374 534.997 399.483 550.134 424.806C554.998 432.991 537.846 437.564 537.75 437.532C535.445 436.924 531.605 433.247 529.845 431.681C517.557 420.618 492.627 389.283 492.627 364.184C492.627 351.938 507.028 329.524 515.924 323.577C521.397 319.9 528.821 323.353 529.717 329.908Z" fill="#FCE29E"/>
<path d="M608.696 278.813L571.319 274.848C570.231 274.72 569.207 275.36 568.823 276.383L555.446 311.49C554.87 313.025 555.958 314.688 557.59 314.752L594.68 316.255C595.672 316.287 596.6 315.711 597.016 314.784L610.681 282.17C611.289 280.636 610.296 278.973 608.696 278.813Z" fill="#233862"/>
<path d="M611.928 279.133L574.55 275.168C573.462 275.04 572.438 275.68 572.054 276.703L558.678 311.81C558.102 313.345 559.19 315.008 560.822 315.072L597.911 316.575C598.903 316.607 599.832 316.031 600.248 315.104L613.912 282.49C614.52 280.988 613.528 279.293 611.928 279.133Z" fill="#2B478B"/>
<path d="M591.223 295.536C591.671 294.289 591.031 293.266 589.783 293.266C588.534 293.266 587.126 294.289 586.678 295.536C586.23 296.783 586.87 297.806 588.118 297.806C589.367 297.806 590.775 296.783 591.223 295.536Z" fill="#EBF3FA"/>
<path d="M610.808 282.458C611.032 281.851 610.712 281.339 610.104 281.339C609.496 281.339 608.792 281.851 608.568 282.458C608.344 283.066 608.664 283.577 609.272 283.577C609.912 283.577 610.584 283.066 610.808 282.458Z" fill="#EBF3FA"/>
<path d="M454.801 296.271C454.801 296.271 506.58 315.327 514.356 314.944C519.38 314.688 561.206 300.012 561.206 300.012L564.951 307.11C564.951 307.11 524.277 333.233 513.076 333.105C490.995 332.849 453.713 319.292 449.521 316.638C445.329 313.984 442.577 298.957 454.801 296.271Z" fill="#FFB27D"/>
<path d="M561.206 300.012C561.206 300.012 564.95 294.257 568.695 294.065C572.439 293.905 578.871 296.623 581.079 297.038C583.287 297.454 589.56 299.5 587.703 302.57C585.847 305.639 577.175 306.311 573.431 305.639C569.687 304.968 564.95 307.142 564.95 307.142L561.206 300.012Z" fill="#FFB27D"/>
<path d="M567.671 294.257C567.671 294.257 573.623 291.539 575.319 291.027C577.015 290.516 576.663 291.027 576.183 292.658C575.671 294.257 572.631 295.791 572.631 296.303C572.631 296.815 567.671 294.257 567.671 294.257Z" fill="#FFB27D"/>
<path d="M608.089 296.943C608.089 296.943 604.344 291.027 603.128 290.772C599.384 290.036 599.384 294.96 600.184 298.126C601.048 301.515 603.928 304.744 604.696 304.456C605.496 304.201 608.953 300.076 608.089 296.943Z" fill="#FFB27D"/>
<path d="M608.217 298.126C608.217 298.126 609.401 304.776 603.096 308.229L604.953 303.657L608.217 298.126Z" fill="#FFB27D"/>
<path d="M499.988 273.601C499.988 273.601 497.748 272.706 491.507 273.218C491.507 273.218 491.827 275.648 496.468 275.903C499.06 276.031 499.988 273.601 499.988 273.601Z" fill="white"/>
<path d="M481.459 305.671C481.459 305.671 476.819 320.315 460.914 323.641C460.914 323.641 434.641 315.551 447.729 297.678C447.729 297.678 460.69 288.086 481.459 305.671Z" fill="white"/>
<path d="M378.701 308.772C378.701 316.413 381.933 323.288 387.085 328.148C391.854 332.624 398.254 335.374 405.326 335.374C405.902 335.374 406.478 335.342 407.022 335.31C413.679 334.894 419.695 332.017 424.143 327.572C424.719 326.997 425.295 326.389 425.807 325.75C426.639 324.759 427.407 323.703 428.079 322.584C430.543 318.556 431.951 313.824 431.951 308.772C431.951 301.418 428.975 294.767 424.143 289.971C419.311 285.175 412.687 282.169 405.326 282.169C397.966 282.169 391.309 285.143 386.509 289.971C381.709 294.799 378.701 301.45 378.701 308.772Z" fill="white"/>
<path d="M389.869 320.826C390.349 321.145 390.861 321.433 391.437 321.625C395.597 325.238 402.19 331.057 407.022 335.31C413.678 334.894 419.695 332.017 424.143 327.572C424.719 326.997 425.295 326.389 425.807 325.75C426.639 324.758 427.407 323.703 428.079 322.584C427.503 321.561 426.831 320.538 425.999 319.515C421.711 313.983 418.223 312.097 419.183 304.967C419.695 301.098 417.199 287.381 408.302 286.678C407.566 286.614 403.054 285.846 399.79 286.773C391.885 288.916 380.781 314.559 389.869 320.826Z" fill="#233862"/>
<path d="M399.086 319.291C399.054 319.291 402.799 321.562 405.743 320.954C408.527 320.379 411.375 316.606 411.311 316.606C410.159 316.318 409.103 315.007 409.583 308.164L409.039 308.228L400.11 309.411C400.11 309.411 400.142 312.193 399.982 314.815C399.886 317.021 399.598 319.1 399.086 319.291Z" fill="#FFB27D"/>
<path d="M400.142 309.444C400.142 309.444 400.174 312.225 400.014 314.847C404.942 315.007 407.854 310.691 409.07 308.26L400.142 309.444Z" fill="#ED975D"/>
<path d="M398.35 311.809C398.35 311.809 409.999 312.737 410.479 305.479C410.959 298.22 412.751 293.456 405.326 292.529C397.902 291.634 396.27 294.32 395.534 296.686C394.798 299.084 395.31 311.362 398.35 311.809Z" fill="#FFB27D"/>
<path d="M396.782 292.913C396.782 292.913 402.67 300.715 407.502 302.282C412.334 303.848 414.543 302.665 414.543 302.665C414.543 302.665 412.142 299.628 411.246 295.343C410.99 294.096 410.062 293.073 408.814 292.689C405.39 291.666 398.734 290.067 396.782 292.913Z" fill="#233862"/>
<path d="M401.422 293.36C401.422 293.36 398.478 295.183 397.358 296.75C396.27 298.252 395.182 302.249 395.406 303.944C395.406 303.944 393.23 295.79 396.142 292.689C399.214 289.396 401.422 293.36 401.422 293.36Z" fill="#233862"/>
<path d="M387.086 328.148C391.854 332.624 398.254 335.374 405.326 335.374H407.086C407.054 335.342 407.054 335.342 407.022 335.31C413.679 334.895 419.695 332.017 424.143 327.573C424.719 326.997 425.295 326.389 425.807 325.75C424.879 323.736 423.983 322.105 423.247 321.05C419.951 316.446 410.415 315.87 410.415 315.87C410.383 315.87 410.383 315.902 410.351 315.902C406.734 318.044 404.334 318.716 402.766 318.716C400.462 318.716 399.918 317.245 399.822 316.893C399.822 316.829 399.822 316.829 399.822 316.829C399.822 316.829 392.942 317.98 389.87 320.858C389.23 321.465 388.75 322.137 388.558 322.872C388.302 323.8 387.758 325.718 387.086 328.148Z" fill="#FCE29E"/>
<path d="M144.425 273.281H362.772C369.268 273.281 374.548 268.006 374.548 261.515V201.532C374.548 195.041 369.268 189.766 362.772 189.766H144.425C137.929 189.766 132.648 195.041 132.648 201.532V261.515C132.648 268.006 137.929 273.281 144.425 273.281Z" fill="white"/>
<path d="M259.984 225.705H229.646V229.638H259.984V225.705Z" fill="#CBE1FD"/>
<path d="M267.471 233.57H229.645V237.503H267.471V233.57Z" fill="#CBE1FD"/>
<path d="M298.321 233.57H270.479V237.503H298.321V233.57Z" fill="#CBE1FD"/>
<path d="M257.486 241.244H229.645V245.177H257.486V241.244Z" fill="#CBE1FD"/>
<path d="M283.472 225.705H263.247V229.637H283.472V225.705Z" fill="#CBE1FD"/>
<path d="M328.722 225.705H287.824V229.637H328.722V225.705Z" fill="#CBE1FD"/>
<path d="M272.88 206.233H229.934V211.796H272.88V206.233Z" fill="#CBE1FD"/>
<path d="M337.011 206.232H277.648V211.796H337.011V206.232Z" fill="#CBE1FD"/>
<path d="M272.937 307.781H253V310.371H272.937V307.781Z" fill="white"/>
<path d="M277.865 312.961H252.999V315.551H277.865V312.961Z" fill="white"/>
<path d="M298.154 312.961H279.849V315.551H298.154V312.961Z" fill="white"/>
<path d="M271.304 318.012H252.999V320.602H271.304V318.012Z" fill="white"/>
<path d="M288.394 307.781H275.081V310.371H288.394V307.781Z" fill="white"/>
<path d="M318.155 307.781H291.241V310.371H318.155V307.781Z" fill="white"/>
<path d="M281.451 294.991H253.193V298.636H281.451V294.991Z" fill="white"/>
<path d="M323.595 294.991H284.553V298.636H323.595V294.991Z" fill="white"/>
<path d="M301.29 370.226H281.353V372.816H301.29V370.226Z" fill="white"/>
<path d="M306.218 375.374H281.353V377.963H306.218V375.374Z" fill="white"/>
<path d="M326.507 375.374H308.202V377.963H326.507V375.374Z" fill="white"/>
<path d="M299.658 380.425H281.353V383.015H299.658V380.425Z" fill="white"/>
<path d="M316.747 370.225H303.434V372.815H316.747V370.225Z" fill="white"/>
<path d="M346.508 370.225H319.595V372.815H346.508V370.225Z" fill="white"/>
<path d="M309.804 357.404H281.547V361.049H309.804V357.404Z" fill="white"/>
<path d="M351.949 357.404H312.907V361.049H351.949V357.404Z" fill="white"/>
<path d="M425.616 34.1166L422.992 36.0031L420.368 34.1486C420.944 33.3172 421.904 32.7737 422.992 32.7737C424.048 32.7737 425.008 33.3172 425.616 34.1166Z" fill="#2B478B"/>
<path d="M422.992 28.2014C420.368 28.2014 418.032 29.5124 416.624 31.4947L418.288 32.6458C419.344 31.175 421.04 30.2158 422.992 30.2158C424.913 30.2158 426.609 31.175 427.665 32.6138L429.329 31.4308C427.889 29.4804 425.585 28.2014 422.992 28.2014Z" fill="#2B478B"/>
<path d="M422.992 19.5361C417.424 19.5361 412.528 22.2859 409.519 26.5064L411.183 27.6575C413.808 23.9485 418.128 21.5505 422.992 21.5505C427.824 21.5505 432.112 23.9485 434.737 27.5935L436.369 26.4105C433.393 22.2219 428.496 19.5361 422.992 19.5361Z" fill="#2B478B"/>
<path d="M422.992 24.2688C419.024 24.2688 415.536 26.2192 413.392 29.2248L415.056 30.3758C416.816 27.9138 419.728 26.2832 422.992 26.2832C426.224 26.2832 429.105 27.8818 430.897 30.3119L432.529 29.1288C430.385 26.1872 426.896 24.2688 422.992 24.2688Z" fill="#2B478B"/>
<path d="M547.416 173.554L535.87 155.357L550.483 164.298L547.954 166.227L549.24 171.334L547.416 173.554Z" fill="#685ED6"/>
<path d="M535.87 155.357L551.498 167.784L559.458 183.275L535.87 155.357Z" fill="#18E1F7"/>
<path d="M550.484 164.299L535.871 155.358L554.113 159.162L550.484 164.299Z" fill="#18E1F7"/>
<g clip-path="url(#clip0_1_1465)">
<path d="M412.889 158.61H230.537V175.995H412.889V158.61Z" fill="white"/>
<path d="M327.281 134.611C327.281 134.611 324.776 137.158 322.272 140.019C321.198 141.18 320.17 142.432 319.275 143.549C316.278 147.303 313.461 148.376 310.151 152.04C308.093 154.32 305.41 156.062 300.4 156.867C295.391 157.671 277.053 158.967 277.053 158.967C277.053 158.967 276.606 156.554 276.919 155.75C277.008 155.526 276.784 155.079 276.471 154.454C275.666 152.845 274.324 150.387 276.919 150.074C280.452 149.672 297.672 145.515 298.477 144.264C299.282 143.013 303.934 137.248 306.438 132.019C308.943 126.79 312.7 120.399 316.547 114.143C319.901 108.646 320.885 108.378 322.674 106.769L324.776 119.55L327.281 134.611Z" fill="#6D9BFF"/>
<path d="M268.644 158.431H256.389V157.895C256.389 154.543 259.118 151.772 262.517 151.772C265.871 151.772 268.644 154.498 268.644 157.895V158.431Z" fill="#A5A5A5"/>
<path d="M269.047 151.46C268.063 151.102 265.066 149.672 263.456 149.672C261.846 149.672 259.163 152.398 257.642 153.739C256.121 155.08 258.223 156.331 259.431 155.705C260.683 155.08 261.846 153.515 263.009 153.56C264.172 153.605 264.709 154.633 265.335 154.856C265.648 154.945 265.827 155.839 265.245 156.242C264.619 156.688 263.233 156.688 262.875 156.912C262.115 157.403 262.607 158.7 263.904 158.7C265.201 158.7 266.274 158.834 267.84 158.521C269.36 158.208 271.284 158.655 272.446 158.163C273.654 157.672 277.009 158.878 277.009 158.878L274.593 152.309C274.593 152.398 270.97 152.219 269.047 151.46Z" fill="#FDD2BB"/>
<path d="M269.942 151.46C270.21 152.443 270.836 153.113 271.328 154.633C272.447 157.895 271.015 158.521 271.015 158.521C271.015 158.521 277.277 158.968 278.395 158.521C278.395 158.521 279.916 156.822 278.395 153.471C276.875 150.119 276.874 150.119 276.874 150.119C276.874 150.119 275.935 150.119 273.162 150.521C270.881 150.834 269.942 151.46 269.942 151.46Z" fill="#2C5CFF"/>
<path d="M357.428 84.7811C357.428 84.7811 356.175 88.4458 356.041 91.6188C355.907 94.7918 355.907 99.1715 356.846 100.87C357.786 102.568 367.581 108.288 367.581 108.288C367.581 108.288 356.444 110.612 345.441 109.942C334.438 109.272 332.068 104.624 332.068 104.624C332.068 104.624 340.432 101.361 340.655 100.512C340.879 99.6631 342.489 93.3617 342.489 93.3617L357.428 84.7811Z" fill="#F6C1AA"/>
<path opacity="0.28" d="M356.623 100.289C355.952 98.3224 355.952 94.479 356.041 91.6188C356.175 88.4458 357.428 84.7811 357.428 84.7811L342.534 93.2724C342.534 93.2724 340.923 99.6184 340.7 100.423C340.476 101.272 332.112 104.534 332.112 104.534C332.112 104.534 332.202 104.713 332.425 104.981C340.521 103.641 348.572 101.987 356.623 100.289Z" fill="#EB9271"/>
<path d="M338.017 84.0216C338.375 81.3848 338.465 71.7763 338.465 71.7763L351.301 67.2626L362.528 73.5193C362.528 73.5193 359.844 82.0105 359.799 84.6919C359.755 87.3734 359.576 90.9486 357.876 93.496C356.221 96.0434 351.838 100.021 350.809 100.512C347.723 101.943 345.71 100.959 343.385 99.6186C342.401 99.0376 341.059 96.1328 339.762 93.3619C338.42 90.5911 337.659 86.6583 338.017 84.0216Z" fill="#FDD2BB"/>
<path d="M358.144 77.3625C358.144 77.3625 358.189 80.8037 359.083 83.0382C359.262 83.4851 359.128 84.8258 358.949 86.4347C359.396 85.8984 359.888 85.4068 360.336 84.9152C361.275 83.932 362.125 82.9488 362.93 81.9209C363.422 79.9545 364.272 77.3178 364.227 75.7983C364.137 71.1952 364.137 68.6478 355.729 64.5363C354.119 63.7765 350.853 61.6314 349.199 62.257C346.694 63.1955 345.978 64.0893 344.01 65.7429C344.01 65.7429 341.371 65.2066 338.062 68.7819C336.138 70.8823 336.72 73.9213 336.809 76.2005C337.033 80.8483 338.285 80.5802 338.285 80.5802C338.464 78.2116 338.062 77.2284 338.777 73.6532C339.001 72.4465 340.79 72.0443 342.042 71.7761C343.205 71.508 343.608 71.0611 347.499 74.9492C349.825 77.2731 351.077 77.0943 358.144 77.3625Z" fill="#5C3000"/>
<path d="M358.457 84.6024C359.084 82.2784 360.068 80.5802 361.141 80.6249C362.17 80.7143 363.243 82.636 361.946 84.8258C360.649 87.0156 359.799 88.3564 359.084 89.2055C358.368 90.144 358.055 86.0771 358.457 84.6024Z" fill="#FDD2BB"/>
<path d="M359.083 84.8704C359.441 83.6191 360.023 82.0549 360.962 82.1443C361.901 82.2337 362.035 83.2616 360.738 85.0492C359.441 86.7921 359.173 87.7306 359.173 87.7306C359.173 87.7306 358.904 85.5855 359.083 84.8704Z" fill="#EB9271"/>
<path d="M347.856 131.84C346.469 139.974 345.843 159.951 342.399 158.431C340.521 157.582 334.706 157.627 329.786 157.806C325.761 157.984 322.406 158.253 322.406 158.253C322.406 158.253 322.183 149.225 322.272 140.019C322.317 135.594 322.406 131.17 322.675 127.639C322.764 126.477 322.809 125.36 322.854 124.288C323.167 113.964 321.467 107.976 322.675 106.814C324.016 105.518 339.626 101.585 340.387 99.7078L341.549 105.205C344.412 109.763 348.124 108.378 348.124 108.378C348.124 108.378 349.242 123.707 347.856 131.84Z" fill="#6D9BFF"/>
<path d="M344.188 109.897C343.428 114.411 343.249 117.941 341.952 126.611C340.655 135.281 341.281 138.857 340.699 144.309C340.118 149.761 339.044 157.85 339.044 157.85L348.392 159.236C348.392 159.236 348.705 143.594 349.197 132.6C349.689 121.606 351.523 111.819 351.523 111.819L352.776 105.115C352.776 105.115 349.332 108.78 345.753 108.422C342.131 107.975 344.188 109.897 344.188 109.897Z" fill="#2C5CFF"/>
<path d="M372.143 116.377C371.785 119.729 373.351 123.885 372.635 128.578C372.143 131.706 371.517 135.505 370.846 139.304C369.907 144.711 370.443 158.387 370.443 158.387C370.443 158.387 349.109 157.627 345.486 158.655C341.908 159.638 344.144 139.795 343.92 131.527C343.697 123.26 347.051 108.333 347.051 108.333C347.051 108.333 349.824 108.333 354.073 105.026C356.712 103.015 357.159 100.333 357.159 100.333C357.651 102.255 372.188 106.635 373.351 108.154C373.53 108.378 373.664 108.825 373.753 109.406C373.887 110.88 372.456 113.249 372.143 116.377Z" fill="#6D9BFF"/>
<path d="M347.006 108.333C348.303 107.975 352.641 105.562 354.251 103.417C355.862 101.272 356.309 98.8585 356.309 98.8585C356.309 98.8585 357.83 101.317 358.008 102.881C358.187 104.445 354.52 112.042 353.849 114.143C353.849 114.143 352.686 113.919 350.539 112.087C348.392 110.255 347.006 108.333 347.006 108.333Z" fill="#2C5CFF"/>
<path d="M340.923 99.4841C340.923 99.4841 340.208 100.557 341.818 103.193C343.428 105.83 346.961 108.378 346.961 108.378L341.236 113.919C341.236 113.919 339.895 110.612 339.089 107.752C338.284 104.892 338.419 101.853 338.821 100.959C339.268 100.11 340.923 99.4841 340.923 99.4841Z" fill="#2C5CFF"/>
<path d="M348.705 120.623C348.66 121.472 347.945 122.053 347.095 122.008C346.245 121.964 345.664 121.249 345.708 120.399C345.753 119.55 346.469 118.969 347.319 119.014C348.168 119.059 348.795 119.774 348.705 120.623Z" fill="#2C5CFF"/>
<path d="M347.543 136.712C347.498 137.561 346.782 138.142 345.933 138.097C345.083 138.052 344.501 137.337 344.546 136.488C344.591 135.639 345.306 135.058 346.156 135.103C347.006 135.148 347.632 135.863 347.543 136.712Z" fill="#2C5CFF"/>
<path d="M346.379 152.756C346.335 153.605 345.619 154.186 344.769 154.141C343.919 154.096 343.338 153.381 343.383 152.532C343.427 151.683 344.143 151.102 344.993 151.147C345.843 151.236 346.469 151.951 346.379 152.756Z" fill="#2C5CFF"/>
<path d="M355.057 126.567C358.769 126.879 362.839 127.326 364.404 127.148V129.516C364.404 129.516 360.692 129.114 357.427 129.114C352.775 129.114 352.775 129.114 352.775 129.114L353.178 126.567C353.178 126.567 353.133 126.432 355.057 126.567Z" fill="#2C5CFF"/>
<path d="M325.895 156.062H305.41V158.431H325.895V156.062Z" fill="#E9EBEE"/>
<path d="M352.239 156.062H325.85V158.431H352.239V156.062Z" fill="#E9EBEE"/>
<path d="M327.282 155.034V156.062H328.534H330.949V155.034H328.534H327.282Z" fill="#D5D5D7"/>
<path d="M322.674 155.034V156.062H323.927H326.342V155.034H323.927H322.674Z" fill="#D5D5D7"/>
<path d="M318.067 155.034V156.062H319.32H321.735V155.034H319.32H318.067Z" fill="#D5D5D7"/>
<path d="M313.46 155.034V156.062H314.713H317.128V155.034H314.713H313.46Z" fill="#D5D5D7"/>
<path d="M347.274 155.034H345.977V156.062H347.274H349.645V155.034H347.274Z" fill="#D5D5D7"/>
<path d="M341.37 155.034V156.062H342.667H345.038V155.034H342.667H341.37Z" fill="#D5D5D7"/>
<path d="M336.763 155.034V156.062H338.06H340.431V155.034H338.06H336.763Z" fill="#D5D5D7"/>
<path d="M332.156 155.034V156.062H333.453H335.824V155.034H333.453H332.156Z" fill="#D5D5D7"/>
<path d="M308.853 155.034V156.062H310.106H312.521V155.034H310.106H308.853Z" fill="#D5D5D7"/>
<path d="M312.029 91.4398H239.706C238.543 91.4398 237.648 92.3783 237.782 93.585L242.837 142.521C242.971 143.683 243.999 144.666 245.207 144.666H317.53C318.693 144.666 319.588 143.728 319.454 142.521L314.4 93.585C314.265 92.3783 313.192 91.4398 312.029 91.4398Z" fill="#FAFCFF"/>
<path d="M312.029 91.4398H239.706C238.543 91.4398 237.648 92.3783 237.782 93.585L242.837 142.521C242.971 143.683 243.999 144.666 245.207 144.666H317.53C318.693 144.666 319.588 143.728 319.454 142.521L314.4 93.585C314.265 92.3783 313.192 91.4398 312.029 91.4398Z" fill="#6B6B6B"/>
<path d="M310.688 91.4401H238.365C237.202 91.4401 236.307 92.3786 236.397 93.5852L240.735 142.522C240.825 143.683 241.898 144.667 243.061 144.667H315.384C316.547 144.667 317.442 143.728 317.352 142.522L313.014 93.5852C312.924 92.3786 311.851 91.4401 310.688 91.4401Z" fill="#D5D5D7"/>
<path d="M298.522 140.689C298.075 140.689 297.628 140.332 297.583 139.84L297.225 135.818C297.181 135.371 297.538 134.969 297.986 134.969C298.433 134.969 298.88 135.326 298.925 135.818L299.283 139.84C299.328 140.332 299.014 140.689 298.522 140.689Z" fill="#E9EBEE"/>
<path d="M301.206 140.689C300.758 140.689 300.311 140.331 300.266 139.839L299.908 135.817C299.864 135.37 300.222 134.968 300.669 134.968C301.116 134.968 301.563 135.326 301.608 135.817L301.966 139.839C302.011 140.331 301.698 140.689 301.206 140.689Z" fill="#E9EBEE"/>
<path d="M303.889 140.689C303.442 140.689 302.995 140.331 302.95 139.839L302.592 135.817C302.548 135.37 302.905 134.968 303.353 134.968C303.8 134.968 304.247 135.326 304.292 135.817L304.65 139.839C304.695 140.331 304.337 140.689 303.889 140.689Z" fill="#E9EBEE"/>
<path d="M306.573 140.689C306.126 140.689 305.679 140.331 305.634 139.839L305.276 135.817C305.231 135.37 305.589 134.968 306.037 134.968C306.484 134.968 306.931 135.326 306.976 135.817L307.334 139.839C307.378 140.331 307.021 140.689 306.573 140.689Z" fill="#E9EBEE"/>
<path d="M309.257 140.689C308.809 140.689 308.362 140.331 308.317 139.839L307.959 135.817C307.915 135.37 308.273 134.968 308.72 134.968C309.167 134.968 309.614 135.326 309.659 135.817L310.017 139.839C310.062 140.331 309.704 140.689 309.257 140.689Z" fill="#E9EBEE"/>
<path d="M293.736 156.733H283.672V158.61L293.736 158.923V156.733Z" fill="#6B6B6B"/>
<path d="M279.916 148.242L282.465 118.075H271.418L266.632 147.929C265.961 151.37 267.034 155.035 269.181 156.688L271.641 158.61H285.283L285.059 156.733C281.079 155.213 279.468 151.549 279.916 148.242Z" fill="#6B6B6B"/>
<path d="M278.305 148.242L280.855 118.076H269.807L265.021 147.929C264.35 151.37 265.424 155.035 267.571 156.689L270.031 158.61H283.672L280.944 156.51C278.931 154.946 277.858 151.549 278.305 148.242Z" fill="#A5A5A5"/>
<path d="M278.529 152.487H265.066C265.469 154.23 266.363 155.794 267.526 156.688L269.986 158.61H283.628L280.899 156.509C279.826 155.616 278.976 154.185 278.529 152.487Z" fill="#6B6B6B"/>
<path d="M390.884 151.862C390.884 151.862 386.724 149.583 383.369 148.063C380.015 146.544 375.14 149.27 375.14 149.27C375.14 149.27 374.558 147.706 373.708 145.739C372.859 143.684 371.785 141.181 370.801 139.349C370.264 138.276 369.772 137.472 369.37 137.069C367.67 135.282 367.849 133.181 367.357 132.153C367.357 132.109 367.312 132.064 367.312 132.019C366.955 130.679 367.894 125.226 368.923 120.266C369.996 115.126 371.427 107.127 371.427 107.127C371.919 107.573 373.619 107.976 374.513 109.048C374.513 109.048 380.596 118.255 383.146 124.601C387.797 136.131 388.558 138.499 389.318 142.745C390.168 146.946 390.884 151.862 390.884 151.862Z" fill="#6D9BFF"/>
<path d="M338.777 154.231C342.355 153.516 344.994 155.259 347.23 155.393C349.467 155.527 357.473 154.678 357.473 154.678L355.684 150.566C355.684 150.566 346.559 150.387 343.473 151.415C340.387 152.443 338.777 154.231 338.777 154.231Z" fill="#FDD2BB"/>
<path d="M357.517 149.985C357.517 149.985 352.776 149.136 350.495 149.091C346.649 149.002 342.31 149.002 341.416 149.717C340.521 150.432 335.914 155.661 335.288 156.51C334.662 157.359 334.975 158.342 336.898 157.672C338.821 157.002 341.997 153.337 343.92 152.488C345.843 151.639 349.422 152.354 349.422 152.354L356.533 151.683L357.517 149.985Z" fill="#FDD2BB"/>
<path opacity="0.28" d="M351.927 149.182C346.246 150.567 340.7 152.444 335.914 155.707C335.601 156.064 335.378 156.377 335.243 156.511C334.617 157.36 334.93 158.344 336.854 157.673C338.777 157.003 341.952 153.338 343.876 152.489C345.799 151.64 349.377 152.355 349.377 152.355L356.489 151.685L357.473 149.986C357.517 149.986 354.342 149.45 351.927 149.182Z" fill="#EB9271"/>
<path d="M352.777 150.164C352.777 150.164 346.157 149.717 344.457 149.538C342.713 149.36 341.371 150.79 340.432 152.488C339.448 154.186 337.48 157.136 337.927 157.985C338.33 158.879 339.448 158.789 340.342 157.806C341.282 156.823 342.489 154.365 343.786 153.873C345.084 153.382 349.467 152.354 349.467 152.354L352.777 150.164Z" fill="#FDD2BB"/>
<path opacity="0.28" d="M344.547 151.236C341.819 152.398 339.404 158.745 340.343 157.806C341.282 156.823 342.49 154.365 343.787 153.873C345.084 153.382 349.467 152.354 349.467 152.354L352.822 150.119C352.822 150.119 351.167 149.985 349.288 149.851C347.633 150.164 346.068 150.611 344.547 151.236Z" fill="#EB9271"/>
<path d="M364.405 156.063C364.405 156.063 361.006 155.84 359.798 157.002C358.591 158.164 357.383 158.7 356.265 158.566C355.102 158.432 353.045 157.404 352.105 156.823C351.166 156.242 348.125 158.208 347.185 158.655C346.202 159.147 345.352 158.298 345.799 157.27C346.291 156.242 347.275 155.259 348.08 154.856C348.885 154.454 352.329 153.605 352.329 153.605H352.284H352.24C351.837 153.56 350.272 153.382 349.243 153.426C348.08 153.516 346.872 154.231 345.754 155.661C344.681 157.091 343.518 158.7 342.892 158.968C342.713 159.057 342.489 159.013 342.31 158.789C341.908 158.387 341.729 157.493 342.266 156.331C343.071 154.633 345.128 151.952 346.202 150.611C347.275 149.27 348.885 149.136 350.451 149.091C351.971 149.047 355.549 149.047 355.549 149.047C355.549 149.047 359.485 148.957 361.677 148.957C363.019 149.002 364.405 156.063 364.405 156.063Z" fill="#FDD2BB"/>
<path opacity="0.28" d="M361.722 149.002C361.23 149.002 360.693 149.002 360.112 149.002C360.156 151.773 359.978 154.544 359.53 157.27C359.62 157.18 359.709 157.091 359.843 157.002C361.051 155.84 364.45 156.063 364.45 156.063C364.45 156.063 363.019 149.002 361.722 149.002Z" fill="#EB9271"/>
<path opacity="0.28" d="M352.329 153.56H352.285H352.24C351.837 153.515 350.272 153.337 349.243 153.381C348.08 153.471 346.873 154.186 345.755 155.616C344.681 157.046 343.518 158.655 342.892 158.923C342.713 159.012 342.49 158.968 342.311 158.744C343.474 157.314 344.681 155.124 345.263 154.141C346.157 152.622 348.751 152.354 349.422 152.354C350.048 152.354 352.329 153.56 352.329 153.56Z" fill="#EB9271"/>
<path d="M377.957 142.924C377.957 142.924 374.603 145.516 369.951 146.946C364.852 148.51 361.721 149.002 361.721 149.002C361.721 149.002 362.079 153.203 362.213 157.582C362.213 157.582 373.395 159.325 380.686 157.94C387.976 156.51 389.81 156.778 391.018 153.605C392.225 150.432 390.213 144.22 389.273 141.494C388.334 138.723 382.475 140.868 377.957 142.924Z" fill="#6D9BFF"/>
<path d="M360.38 148.957C361.588 150.566 361.543 152.979 361.856 156.331C362.08 158.655 361.275 158.61 361.275 158.61L367.402 158.432C367.402 158.432 368.073 154.901 367.134 151.639C366.15 148.376 366.15 148.376 366.15 148.376L360.38 148.957Z" fill="#2C5CFF"/>
<path d="M397.369 145.068C397.503 144.174 398.219 143.37 399.113 143.102C399.784 142.923 400.545 142.968 401.037 142.476C401.573 141.94 401.35 141.046 401.35 140.286C401.35 138.767 402.334 137.337 403.765 136.8C404.391 136.577 405.107 136.532 405.599 136.085C406.091 135.639 406.27 134.923 406.448 134.253C406.94 132.6 407.969 131.169 409.311 130.097C409.892 129.65 410.608 129.292 411.279 129.471C411.816 129.65 412.218 130.142 412.352 130.678C412.487 131.214 412.397 131.795 412.218 132.331C411.503 134.342 409.445 135.773 408.998 137.873C408.774 138.901 408.998 140.018 408.774 141.046C408.506 142.253 407.656 143.281 406.538 143.772C406.001 143.996 405.33 144.13 404.972 144.621C404.57 145.158 404.704 145.962 404.615 146.632C404.436 148.107 403.004 149.224 401.529 149.314C400.053 149.403 398.621 148.509 397.816 147.303C397.727 147.347 397.235 146.007 397.369 145.068Z" fill="#4BBD6D"/>
<path d="M404.212 143.638C404.748 142.968 404.838 142.029 404.48 141.27C404.212 140.733 403.675 140.197 403.72 139.616C403.764 138.946 404.48 138.544 405.017 138.052C406.045 137.158 406.403 135.549 405.866 134.298C404.748 131.616 407.164 129.293 406.94 126.432C406.895 125.807 406.716 125.092 406.135 124.734C405.688 124.466 405.106 124.511 404.659 124.779C404.212 125.002 403.898 125.449 403.63 125.896C402.87 127.326 402.87 128.846 402.378 130.32C401.886 131.706 400.723 132.421 399.918 133.583C399.292 134.477 399.113 135.728 399.471 136.756C399.649 137.292 399.963 137.784 399.828 138.32C399.694 138.946 399.113 139.303 398.71 139.795C397.86 140.823 397.95 142.476 398.8 143.504C399.649 144.532 401.125 144.979 402.423 144.756C402.467 144.756 403.675 144.264 404.212 143.638Z" fill="#44AB63"/>
<path d="M403.496 145.292C403.407 144.532 402.825 143.817 402.065 143.594C401.528 143.415 400.857 143.46 400.455 143.013C400.052 142.521 400.231 141.806 400.276 141.18C400.32 139.929 399.515 138.678 398.308 138.231C397.771 138.052 397.19 137.963 396.787 137.605C396.384 137.203 396.25 136.622 396.116 136.086C395.714 134.7 394.908 133.449 393.79 132.555C393.343 132.198 392.717 131.84 392.135 132.019C391.688 132.153 391.33 132.555 391.241 133.002C391.107 133.449 391.196 133.94 391.33 134.387C391.912 136.086 393.611 137.337 393.924 139.08C394.103 139.974 393.88 140.867 394.059 141.761C394.238 142.745 394.953 143.638 395.892 144.085C396.34 144.309 396.876 144.443 397.19 144.845C397.503 145.337 397.368 145.962 397.458 146.543C397.592 147.75 398.755 148.733 399.963 148.822C401.215 148.912 402.423 148.241 403.138 147.214C403.094 147.169 403.586 146.052 403.496 145.292Z" fill="#44AB63"/>
<path d="M395.803 141.359C395.624 140.733 395.132 140.242 394.909 139.661C394.461 138.633 394.73 137.426 395.177 136.354C395.535 135.594 395.982 134.789 395.937 133.985C395.892 133.449 395.669 132.957 395.49 132.466C395.132 131.259 395.177 129.963 395.266 128.712C395.311 127.952 395.356 127.147 395.669 126.477C395.982 125.762 396.563 125.136 397.324 125.002C398.352 124.823 399.381 125.628 399.739 126.611C400.142 127.594 400.052 128.667 399.918 129.695C399.784 130.723 399.65 131.795 399.963 132.823C400.276 133.985 401.126 134.879 401.618 135.996C402.199 137.337 402.065 138.99 401.349 140.242C400.991 140.867 400.455 141.448 400.231 142.163C399.784 143.638 400.723 145.202 400.902 146.722C401.036 147.705 400.812 148.778 400.142 149.493C398.666 151.191 396.206 150.029 395.669 148.107C395.4 147.124 395.087 145.873 395.222 144.845C395.356 143.683 396.161 142.566 395.803 141.359Z" fill="#4BBD6D"/>
<path d="M406.045 158.61H396.205L392.94 142.789H409.31L406.045 158.61Z" fill="#D5D5D7"/>
<path d="M415.282 158.899H225.641V165.022H415.282V158.899Z" stroke="#D4DBF1" stroke-width="0.282631" stroke-miterlimit="10"/>
</g>
<circle cx="175" cy="221" r="30" fill="#CBE1FD"/>
<mask id="mask0_1_1465" style="mask-type:alpha" maskUnits="userSpaceOnUse" x="152" y="200" width="64" height="64">
<path d="M215.399 232.182C215.399 238.175 213.723 243.782 210.822 248.551C210.016 249.872 209.114 251.128 208.147 252.288C207.534 253.03 206.857 253.771 206.181 254.447C204.505 256.123 202.667 257.605 200.637 258.862C196.318 261.569 191.29 263.276 185.907 263.599C185.231 263.631 184.554 263.663 183.877 263.663C177.463 263.663 171.468 261.73 166.504 258.443C164.99 257.444 163.604 256.349 162.282 255.124C159.897 252.901 157.867 250.291 156.287 247.423C153.773 242.912 152.355 237.692 152.355 232.149C152.355 223.449 155.868 215.555 161.605 209.852C167.31 204.148 175.175 200.636 183.909 200.636C192.611 200.636 200.508 204.148 206.213 209.852C211.885 215.619 215.399 223.482 215.399 232.182Z" fill="#DFEBFD"/>
</mask>
<g mask="url(#mask0_1_1465)">
<path d="M169.793 253.111C169.793 253.111 168.106 254.827 166.419 256.755C165.696 257.538 165.003 258.381 164.401 259.134C162.382 261.664 160.484 262.387 158.255 264.857C156.869 266.393 155.062 267.567 151.688 268.11C148.314 268.652 135.963 269.525 135.963 269.525C135.963 269.525 135.662 267.899 135.873 267.357C135.933 267.206 135.782 266.905 135.571 266.483C135.029 265.399 134.125 263.742 135.873 263.532C138.252 263.261 149.85 260.46 150.393 259.616C150.935 258.773 154.068 254.888 155.755 251.364C157.442 247.84 159.972 243.533 162.563 239.316C164.822 235.612 165.485 235.431 166.69 234.347L168.106 242.961L169.793 253.111Z" fill="#6D9BFF"/>
<path d="M190.099 219.527C190.099 219.527 189.255 221.997 189.165 224.136C189.074 226.274 189.074 229.226 189.707 230.37C190.34 231.515 196.937 235.37 196.937 235.37C196.937 235.37 189.436 236.936 182.025 236.484C174.615 236.032 173.018 232.9 173.018 232.9C173.018 232.9 178.651 230.701 178.802 230.129C178.952 229.557 180.037 225.31 180.037 225.31L190.099 219.527Z" fill="#F6C1AA"/>
<path opacity="0.28" d="M189.556 229.979C189.104 228.653 189.104 226.063 189.164 224.136C189.255 221.997 190.098 219.527 190.098 219.527L180.067 225.25C180.067 225.25 178.982 229.527 178.832 230.069C178.681 230.641 173.048 232.84 173.048 232.84C173.048 232.84 173.108 232.96 173.259 233.141C178.711 232.237 184.134 231.123 189.556 229.979Z" fill="#EB9271"/>
<path d="M177.025 219.016C177.266 217.239 177.326 210.763 177.326 210.763L185.972 207.721L193.533 211.938C193.533 211.938 191.726 217.66 191.696 219.467C191.666 221.274 191.545 223.684 190.4 225.401C189.286 227.117 186.334 229.798 185.641 230.129C183.562 231.093 182.206 230.43 180.64 229.527C179.977 229.135 179.073 227.178 178.2 225.31C177.296 223.443 176.784 220.793 177.025 219.016Z" fill="#FDD2BB"/>
<path d="M190.581 214.528C190.581 214.528 190.611 216.847 191.213 218.353C191.334 218.654 191.243 219.558 191.123 220.642C191.424 220.281 191.756 219.949 192.057 219.618C192.689 218.956 193.262 218.293 193.804 217.6C194.135 216.275 194.708 214.498 194.678 213.474C194.617 210.372 194.617 208.655 188.954 205.884C187.87 205.372 185.67 203.926 184.556 204.348C182.869 204.981 182.387 205.583 181.061 206.697C181.061 206.697 179.284 206.336 177.055 208.745C175.759 210.161 176.151 212.209 176.211 213.745C176.362 216.877 177.205 216.697 177.205 216.697C177.326 215.1 177.939 215.166 178.421 212.757C178.571 211.943 178.79 211.725 179.633 211.544C180.416 211.364 180.79 210.281 183.411 212.902C184.978 214.468 185.821 214.347 190.581 214.528Z" fill="#5C3000"/>
<path d="M190.792 219.408C191.214 217.842 191.877 216.697 192.6 216.727C193.293 216.788 194.015 218.083 193.142 219.558C192.268 221.034 191.696 221.938 191.214 222.51C190.732 223.142 190.521 220.402 190.792 219.408Z" fill="#FDD2BB"/>
<path d="M191.213 219.588C191.454 218.745 191.845 217.691 192.478 217.751C193.11 217.811 193.201 218.504 192.327 219.709C191.454 220.883 191.273 221.516 191.273 221.516C191.273 221.516 191.092 220.07 191.213 219.588Z" fill="#EB9271"/>
<path d="M183.652 251.243C182.718 256.724 182.296 270.187 179.977 269.163C178.711 268.591 174.795 268.621 171.481 268.741C168.77 268.862 166.511 269.043 166.511 269.043C166.511 269.043 166.36 262.959 166.42 256.754C166.451 253.772 166.511 250.791 166.692 248.411C166.752 247.628 166.782 246.875 166.812 246.153C167.023 239.195 165.878 235.159 166.692 234.376C167.595 233.503 178.109 230.852 178.621 229.587L179.404 233.292C181.332 236.364 183.832 235.43 183.832 235.43C183.832 235.43 184.586 245.761 183.652 251.243Z" fill="#6D9BFF"/>
<path d="M181.181 236.454C180.669 239.496 180.549 241.876 179.675 247.719C178.801 253.562 179.223 255.971 178.831 259.646C178.44 263.32 177.717 268.771 177.717 268.771L184.013 269.705C184.013 269.705 184.224 259.164 184.555 251.755C184.886 244.345 186.122 237.749 186.122 237.749L186.965 233.232C186.965 233.232 184.645 235.701 182.235 235.46C179.795 235.159 181.181 236.454 181.181 236.454Z" fill="#2C5CFF"/>
<path d="M200.009 240.821C199.768 243.08 200.822 245.881 200.34 249.044C200.009 251.152 199.587 253.712 199.135 256.272C198.503 259.916 198.864 269.133 198.864 269.133C198.864 269.133 184.495 268.621 182.055 269.313C179.645 269.976 181.151 256.603 181 251.031C180.85 245.46 183.109 235.4 183.109 235.4C183.109 235.4 184.977 235.4 187.839 233.171C189.616 231.816 189.917 230.009 189.917 230.009C190.249 231.304 200.039 234.255 200.822 235.28C200.943 235.43 201.033 235.731 201.094 236.123C201.184 237.117 200.22 238.713 200.009 240.821Z" fill="#6D9BFF"/>
<path d="M183.079 235.4C183.953 235.159 186.875 233.533 187.959 232.087C189.044 230.641 189.345 229.015 189.345 229.015C189.345 229.015 190.369 230.671 190.49 231.726C190.61 232.78 188.14 237.9 187.688 239.315C187.688 239.315 186.905 239.165 185.459 237.93C184.013 236.695 183.079 235.4 183.079 235.4Z" fill="#2C5CFF"/>
<path d="M178.983 229.437C178.983 229.437 178.501 230.159 179.586 231.936C180.67 233.713 183.05 235.43 183.05 235.43L179.194 239.165C179.194 239.165 178.29 236.936 177.748 235.009C177.206 233.081 177.296 231.033 177.567 230.431C177.868 229.858 178.983 229.437 178.983 229.437Z" fill="#2C5CFF"/>
<path d="M184.223 243.683C184.193 244.255 183.711 244.647 183.139 244.617C182.567 244.586 182.175 244.105 182.205 243.532C182.235 242.96 182.717 242.568 183.29 242.599C183.862 242.629 184.284 243.111 184.223 243.683Z" fill="#2C5CFF"/>
<path d="M183.441 254.526C183.411 255.098 182.929 255.49 182.356 255.46C181.784 255.429 181.392 254.947 181.422 254.375C181.452 253.803 181.934 253.411 182.507 253.442C183.079 253.472 183.501 253.954 183.441 254.526Z" fill="#2C5CFF"/>
<path d="M188.502 247.689C191.002 247.899 193.743 248.201 194.798 248.08V249.676C194.798 249.676 192.297 249.405 190.098 249.405C186.965 249.405 186.965 249.405 186.965 249.405L187.236 247.689C187.236 247.689 187.206 247.598 188.502 247.689Z" fill="#2C5CFF"/>
<path d="M212.631 264.736C212.631 264.736 209.829 263.2 207.57 262.176C205.311 261.152 202.027 262.989 202.027 262.989C202.027 262.989 201.635 261.935 201.063 260.61C200.491 259.224 199.768 257.538 199.105 256.303C198.743 255.58 198.412 255.038 198.141 254.767C196.996 253.562 197.117 252.146 196.785 251.454C196.785 251.424 196.755 251.393 196.755 251.363C196.514 250.46 197.147 246.785 197.84 243.442C198.563 239.979 199.527 234.587 199.527 234.587C199.858 234.889 201.003 235.16 201.605 235.882C201.605 235.882 205.702 242.087 207.419 246.364C210.552 254.134 211.064 255.731 211.577 258.592C212.149 261.423 212.631 264.736 212.631 264.736Z" fill="#6D9BFF"/>
<path d="M203.926 258.712C203.926 258.712 201.666 260.459 198.533 261.423C195.099 262.477 192.99 262.808 192.99 262.808C192.99 262.808 193.231 265.64 193.322 268.591C193.322 268.591 200.853 269.766 205.763 268.832C210.674 267.868 211.909 268.049 212.722 265.911C213.535 263.772 212.18 259.586 211.547 257.749C210.915 255.881 206.968 257.327 203.926 258.712Z" fill="#6D9BFF"/>
<path d="M192.086 262.779C192.899 263.863 192.869 265.489 193.08 267.748C193.231 269.314 192.688 269.284 192.688 269.284L196.815 269.164C196.815 269.164 197.267 266.784 196.635 264.586C195.972 262.387 195.972 262.387 195.972 262.387L192.086 262.779Z" fill="#2C5CFF"/>
</g>
<circle cx="233" cy="354" r="24" fill="white"/>
<mask id="mask1_1_1465" style="mask-type:alpha" maskUnits="userSpaceOnUse" x="219" y="346" width="52" height="52">
<path d="M270.036 371.885C270.036 376.68 268.695 381.165 266.375 384.98C265.73 386.037 265.008 387.043 264.235 387.971C263.745 388.564 263.203 389.156 262.662 389.698C261.321 391.038 259.851 392.224 258.227 393.229C254.772 395.395 250.749 396.761 246.443 397.019C245.902 397.044 245.36 397.07 244.819 397.07C239.688 397.07 234.892 395.524 230.921 392.894C229.709 392.095 228.6 391.219 227.543 390.239C225.635 388.46 224.011 386.372 222.747 384.078C220.736 380.469 219.601 376.293 219.601 371.859C219.601 364.899 222.412 358.584 227.002 354.021C231.566 349.458 237.857 346.649 244.845 346.649C251.806 346.649 258.124 349.458 262.688 354.021C267.226 358.635 270.036 364.925 270.036 371.885Z" fill="#DFEBFD"/>
</mask>
<g mask="url(#mask1_1_1465)">
<path d="M233.638 388.547C233.638 388.547 232.288 389.92 230.939 391.462C230.36 392.088 229.806 392.763 229.324 393.365C227.709 395.389 226.191 395.968 224.408 397.943C223.299 399.172 221.853 400.112 219.154 400.546C216.455 400.979 206.574 401.678 206.574 401.678C206.574 401.678 206.333 400.377 206.502 399.943C206.55 399.823 206.429 399.582 206.261 399.245C205.827 398.377 205.104 397.052 206.502 396.883C208.406 396.666 217.684 394.426 218.118 393.751C218.552 393.076 221.058 389.968 222.408 387.149C223.757 384.33 225.781 380.884 227.854 377.511C229.662 374.547 230.192 374.403 231.156 373.536L232.288 380.427L233.638 388.547Z" fill="#6D9BFF"/>
<path d="M249.883 361.68C249.883 361.68 249.208 363.656 249.136 365.367C249.063 367.078 249.063 369.439 249.569 370.354C250.076 371.27 255.353 374.354 255.353 374.354C255.353 374.354 249.353 375.607 243.424 375.246C237.495 374.884 236.218 372.378 236.218 372.378C236.218 372.378 240.725 370.619 240.845 370.162C240.966 369.704 241.833 366.306 241.833 366.306L249.883 361.68Z" fill="#F6C1AA"/>
<path opacity="0.28" d="M249.449 370.041C249.087 368.981 249.087 366.909 249.136 365.367C249.208 363.656 249.883 361.68 249.883 361.68L241.857 366.258C241.857 366.258 240.99 369.68 240.869 370.113C240.749 370.571 236.242 372.33 236.242 372.33C236.242 372.33 236.29 372.427 236.411 372.571C240.773 371.848 245.111 370.957 249.449 370.041Z" fill="#EB9271"/>
<path d="M239.423 361.271C239.616 359.85 239.664 354.669 239.664 354.669L246.581 352.236L252.63 355.609C252.63 355.609 251.184 360.187 251.16 361.633C251.136 363.078 251.04 365.006 250.124 366.379C249.232 367.753 246.87 369.897 246.316 370.162C244.653 370.933 243.569 370.403 242.315 369.68C241.785 369.367 241.062 367.801 240.363 366.307C239.64 364.813 239.231 362.693 239.423 361.271Z" fill="#FDD2BB"/>
<path d="M250.268 357.681C250.268 357.681 250.293 359.536 250.775 360.741C250.871 360.982 250.799 361.705 250.702 362.572C250.943 362.283 251.208 362.018 251.449 361.753C251.955 361.223 252.413 360.693 252.847 360.139C253.112 359.078 253.57 357.657 253.546 356.838C253.498 354.356 253.498 352.982 248.967 350.766C248.1 350.356 246.34 349.2 245.449 349.537C244.099 350.043 243.713 350.525 242.653 351.416C242.653 351.416 241.231 351.127 239.448 353.055C238.411 354.187 238.725 355.826 238.773 357.054C238.893 359.56 239.568 359.416 239.568 359.416C239.665 358.139 240.155 358.191 240.541 356.264C240.661 355.613 240.836 355.439 241.51 355.294C242.137 355.149 242.436 354.284 244.533 356.38C245.786 357.633 246.461 357.536 250.268 357.681Z" fill="#5C3000"/>
<path d="M250.437 361.585C250.775 360.332 251.305 359.416 251.883 359.44C252.438 359.488 253.016 360.524 252.317 361.705C251.618 362.886 251.16 363.609 250.775 364.066C250.389 364.572 250.22 362.38 250.437 361.585Z" fill="#FDD2BB"/>
<path d="M250.774 361.729C250.967 361.054 251.28 360.211 251.786 360.259C252.293 360.307 252.365 360.862 251.666 361.825C250.967 362.765 250.822 363.271 250.822 363.271C250.822 363.271 250.678 362.115 250.774 361.729Z" fill="#EB9271"/>
<path d="M244.725 387.052C243.978 391.437 243.64 402.208 241.785 401.389C240.772 400.931 237.639 400.955 234.988 401.051C232.819 401.148 231.012 401.292 231.012 401.292C231.012 401.292 230.891 396.425 230.94 391.461C230.964 389.076 231.012 386.691 231.157 384.787C231.205 384.161 231.229 383.558 231.253 382.98C231.422 377.414 230.506 374.186 231.157 373.559C231.88 372.86 240.29 370.74 240.7 369.728L241.327 372.692C242.869 375.149 244.869 374.402 244.869 374.402C244.869 374.402 245.472 382.667 244.725 387.052Z" fill="#6D9BFF"/>
<path d="M242.748 375.222C242.339 377.655 242.242 379.559 241.543 384.233C240.844 388.908 241.182 390.835 240.868 393.775C240.555 396.714 239.977 401.076 239.977 401.076L245.014 401.822C245.014 401.822 245.182 393.389 245.447 387.462C245.713 381.535 246.701 376.258 246.701 376.258L247.375 372.644C247.375 372.644 245.52 374.62 243.592 374.427C241.64 374.186 242.748 375.222 242.748 375.222Z" fill="#2C5CFF"/>
<path d="M257.811 378.715C257.618 380.523 258.461 382.763 258.076 385.293C257.811 386.98 257.473 389.028 257.112 391.076C256.606 393.991 256.895 401.364 256.895 401.364C256.895 401.364 245.399 400.955 243.447 401.509C241.519 402.039 242.724 391.341 242.604 386.884C242.483 382.426 244.291 374.378 244.291 374.378C244.291 374.378 245.785 374.378 248.074 372.595C249.496 371.511 249.737 370.065 249.737 370.065C250.002 371.102 257.835 373.463 258.461 374.282C258.558 374.402 258.63 374.643 258.678 374.957C258.75 375.752 257.979 377.029 257.811 378.715Z" fill="#6D9BFF"/>
<path d="M244.267 374.378C244.966 374.186 247.303 372.884 248.171 371.728C249.038 370.571 249.279 369.27 249.279 369.27C249.279 369.27 250.099 370.595 250.195 371.439C250.292 372.282 248.315 376.378 247.954 377.511C247.954 377.511 247.327 377.39 246.171 376.402C245.014 375.414 244.267 374.378 244.267 374.378Z" fill="#2C5CFF"/>
<path d="M240.99 369.608C240.99 369.608 240.604 370.186 241.472 371.608C242.339 373.029 244.243 374.403 244.243 374.403L241.158 377.39C241.158 377.39 240.435 375.607 240.002 374.065C239.568 372.523 239.64 370.885 239.857 370.403C240.098 369.945 240.99 369.608 240.99 369.608Z" fill="#2C5CFF"/>
<path d="M245.182 381.004C245.158 381.462 244.773 381.775 244.315 381.751C243.857 381.727 243.544 381.342 243.568 380.884C243.592 380.426 243.977 380.113 244.435 380.137C244.893 380.161 245.231 380.547 245.182 381.004Z" fill="#2C5CFF"/>
<path d="M244.556 389.679C244.532 390.136 244.146 390.45 243.688 390.426C243.23 390.401 242.917 390.016 242.941 389.558C242.965 389.1 243.351 388.787 243.809 388.811C244.266 388.835 244.604 389.221 244.556 389.679Z" fill="#2C5CFF"/>
<path d="M248.604 384.209C250.605 384.378 252.798 384.619 253.641 384.522V385.799C253.641 385.799 251.641 385.583 249.882 385.583C247.375 385.583 247.375 385.583 247.375 385.583L247.592 384.209C247.592 384.209 247.568 384.137 248.604 384.209Z" fill="#2C5CFF"/>
<path d="M267.909 397.847C267.909 397.847 265.668 396.618 263.86 395.799C262.053 394.98 259.426 396.449 259.426 396.449C259.426 396.449 259.113 395.606 258.655 394.546C258.197 393.438 257.619 392.088 257.088 391.1C256.799 390.522 256.534 390.088 256.317 389.871C255.401 388.908 255.498 387.775 255.233 387.221C255.233 387.197 255.209 387.173 255.209 387.149C255.016 386.426 255.522 383.486 256.076 380.812C256.655 378.041 257.426 373.728 257.426 373.728C257.691 373.969 258.607 374.186 259.089 374.764C259.089 374.764 262.366 379.728 263.74 383.149C266.246 389.365 266.656 390.643 267.066 392.932C267.523 395.196 267.909 397.847 267.909 397.847Z" fill="#6D9BFF"/>
<path d="M260.945 393.028C260.945 393.028 259.137 394.425 256.631 395.196C253.883 396.04 252.196 396.305 252.196 396.305C252.196 396.305 252.389 398.57 252.462 400.931C252.462 400.931 258.486 401.871 262.415 401.124C266.343 400.353 267.331 400.497 267.982 398.786C268.632 397.076 267.548 393.727 267.042 392.257C266.536 390.763 263.379 391.919 260.945 393.028Z" fill="#6D9BFF"/>
<path d="M251.473 396.281C252.124 397.148 252.099 398.449 252.268 400.256C252.389 401.509 251.955 401.485 251.955 401.485L255.257 401.389C255.257 401.389 255.618 399.485 255.112 397.726C254.582 395.967 254.582 395.967 254.582 395.967L251.473 396.281Z" fill="#2C5CFF"/>
</g>
<line x1="607.186" y1="451.328" x2="162.335" y2="451.328" stroke="black" stroke-width="1.11491"/>
<path d="M538 170C581 200.5 532 265.5 507 268" stroke="#685ED6" stroke-linecap="round" stroke-linejoin="round" stroke-dasharray="5 7"/>
<path d="M128 143.5C68.5 210.833 34.6002 329.8 75.0002 405C125.5 499 223 507 386 519.5" stroke="#18E1F7" stroke-linecap="round" stroke-linejoin="round" stroke-dasharray="5 7"/>
<path d="M496.5 142.5C482.833 136.333 464.7 127.4 461.5 109C458.3 90.6 493 58.5 468 46" stroke="#685ED6" stroke-linecap="round" stroke-linejoin="round" stroke-dasharray="5 7"/>
<path d="M36.3406 68.4383L92.0367 77.6913L55.5014 51.2787L53.4452 59.4788L39.8191 61.6618L36.3406 68.4383Z" fill="#685ED6"/>
<path d="M92.0374 77.6908L46.058 52.4339L0.559244 49.1293L92.0374 77.6908Z" fill="#18E1F7"/>
<path d="M55.5006 51.2786L92.0359 77.6912L64.1596 37.0448L55.5006 51.2786Z" fill="#18E1F7"/>
<path d="M654.272 42.3998L623.74 55.2327L641.008 35.2033L643.294 39.605L651.367 39.0035L654.272 42.3998Z" fill="#685ED6"/>
<path d="M623.74 55.2324L646.554 34.5817L672.073 26.5265L623.74 55.2324Z" fill="#18E1F7"/>
<path d="M641.008 35.2036L623.741 55.2322L634.135 28.2535L641.008 35.2036Z" fill="#18E1F7"/>
<path d="M350.942 93.9146C350.942 93.9146 347.264 94.5406 343.587 93.4901C343.587 93.4901 344.112 95.591 347.79 95.9416C350.417 95.591 350.942 93.9146 350.942 93.9146Z" fill="white"/>
<path d="M447.819 562.688L489.959 545.136L454.637 544.045L456.306 549.986L447.675 557.035L447.819 562.688Z" fill="#685ED6"/>
<path d="M489.959 545.135L448.52 548.709L415.701 565.684L489.959 545.135Z" fill="#18E1F7"/>
<path d="M454.638 544.045L489.96 545.135L455.274 531.606L454.638 544.045Z" fill="#18E1F7"/>
<path d="M491.5 520.5C559 537 673.5 549.5 673.5 467.5C673.5 380.43 639 383 617 253" stroke="#18E1F7" stroke-linecap="round" stroke-linejoin="round" stroke-dasharray="5 7"/>
<defs>
<clipPath id="clip0_1_1465">
<rect width="190.089" height="113.827" fill="white" transform="translate(230.537 62.1438)"/>
</clipPath>
</defs>
</svg>
