<svg width="1107" height="240" viewBox="0 0 1107 240" fill="none" xmlns="http://www.w3.org/2000/svg">
<path d="M325.852 92.904L365.999 76.249L332.269 75.0258L333.892 80.7417L325.686 87.4718L325.852 92.904Z" fill="#685ED6"/>
<path d="M366 76.2484L326.452 79.4765L295.202 95.6227L366 76.2484Z" fill="#18E1F7"/>
<path d="M332.27 75.0255L366 76.2487L332.815 63.0767L332.27 75.0255Z" fill="#18E1F7"/>
<path d="M304.5 70.5C282 64 273.9 46.1 235.5 38.5C197.1 30.9 174.667 43.6667 168 49.5" stroke="#18E1F7" stroke-linecap="round" stroke-linejoin="round" stroke-dasharray="5 7"/>
<path d="M369 98C378 109 402.5 125.8 432.5 129C462.5 132.2 486.667 130.333 495 129" stroke="#33AFE1" stroke-linecap="round" stroke-linejoin="round" stroke-dasharray="5 7"/>
<path d="M756.217 63.6011L807.283 59.1047L767.633 40.5849L768.331 49.7656L757.182 55.5587L756.217 63.6011Z" fill="#685ED6"/>
<path d="M807.284 59.104L759.798 44.2223L719.368 52.3854L807.284 59.104Z" fill="#18E1F7"/>
<path d="M767.634 40.5846L807.284 59.1044L770.833 23.3451L767.634 40.5846Z" fill="#18E1F7"/>
<path d="M744.5 33C704.5 16 684.4 26.5 666 44.5C643 67 664 120.5 609 117" stroke="#685ED6" stroke-linecap="round" stroke-linejoin="round" stroke-dasharray="5 7"/>
<path d="M824 68C836.833 76.8333 877.5 92.5 930.5 77" stroke="#685ED6" stroke-linecap="round" stroke-linejoin="round" stroke-dasharray="5 7"/>
</svg>
